<?xml version="1.0" standalone="no"?>
<!DOCTYPE svg PUBLIC "-//W3C//DTD SVG 20010904//EN"
 "http://www.w3.org/TR/2001/REC-SVG-20010904/DTD/svg10.dtd">
<svg version="1.0" xmlns="http://www.w3.org/2000/svg"
 width="400.000000pt" height="400.000000pt" viewBox="0 0 400.000000 400.000000"
 preserveAspectRatio="xMidYMid meet">

<g transform="translate(0.000000,400.000000) scale(0.100000,-0.100000)"
fill="#000000" stroke="none">
<path d="M730 2009 l0 -1422 57 54 c75 70 252 240 428 410 363 351 533 513
544 516 3 2 96 -84 205 -190 l199 -193 -182 -174 c-99 -95 -181 -177 -181
-182 0 -4 311 -8 690 -8 386 0 690 4 690 9 0 5 -21 28 -47 51 -27 24 -104 98
-173 164 -69 67 -186 180 -260 251 -74 71 -196 188 -270 260 -239 231 -574
550 -622 594 -33 30 -51 40 -61 34 -12 -6 -184 -170 -472 -448 -11 -11 -35
-33 -53 -49 l-32 -30 0 662 0 662 692 0 691 0 -138 -132 c-77 -73 -202 -195
-280 -271 l-140 -138 160 -153 160 -154 30 25 c37 31 752 719 817 786 68 71
83 107 83 202 0 63 -5 89 -23 122 -30 57 -80 105 -138 134 l-49 24 -1162 3
-1163 2 0 -1421z"/>
</g>
</svg>
